<?xml version="1.0" encoding="utf-8"?><svg xmlns="http://www.w3.org/2000/svg" viewBox="0 0 180 120" width="180" height="120"><path fill="#fff" d="M0 0h180v120H0z"/><path d="M29.68 37.81l16.64-25M35.92 42l16.64-25m-10.4 29.13l16.64-25M43.82 47.24L40.49 45l16.64-25 3.33 2.22zm-6.24-4.16l-3.33-2.22 16.64-25 3.33 2.22zm-6.24-4.16L28 36.7l16.64-25L48 14zM121.2 98.83l16.64-25M127.44 103l16.64-25m-10.4 29.12l16.64-25m-14.97 26.14L132 106l16.64-25 3.36 2.3zm-6.24-4.16l-3.33-2.22 16.64-25 3.33 2.22zm-6.24-4.16l-3.33-2.22 16.64-25 3.33 2.28zM125.36 83.57l20.8 13.87"/><path fill="#fff" d="M124.255 85.238l2.219-3.329 20.801 13.868-2.219 3.328z"/><circle cx="90" cy="60" r="30" transform="matrix(.55 -.83 .83 .55 -9.85 101.6)" fill="#c60c30"/><path d="M65 43.36A15 15 0 1090 60a15 15 0 0125 16.64 30 30 0 01-50-33.28z" fill="#003478"/><path d="M46.32 107.15l-16.64-25M52.56 103L35.92 78M58.8 98.83l-16.64-25m2.49 34.43L28 83.3l3.33-2.22L48 106zm6.24-4.16l-16.64-25 3.33-2.22 16.64 25zm6.24-4.16L40.49 75l3.33-2.22 16.64 25zM137.84 46.13l-16.64-25M144.08 42l-16.64-25m22.88 20.8l-16.64-25m2.5 34.44l-16.64-25 3.33-2.22 16.64 25zm6.24-4.16l-16.64-25 3.33-2.22 16.64 25zm6.24-4.16L132 14l3.33-2.22L152 36.7zM41.12 92.59l6.24-4.16m78-52l7.28-4.85m6.24-4.16l6.24-4.16"/><path fill="#fff" d="M42.23 94.25L40 90.92l6.24-4.16 2.22 3.33zm84.25-56.16l-2.22-3.33 7.28-4.85 2.22 3.33zm13.52-9l-2.22-3.33 6.22-4.17 2.22 3.33z"/></svg>